<?xml version="1.0" standalone="no"?>
<!DOCTYPE svg PUBLIC "-//W3C//DTD SVG 20010904//EN"
 "http://www.w3.org/TR/2001/REC-SVG-20010904/DTD/svg10.dtd">
<svg version="1.0" xmlns="http://www.w3.org/2000/svg"
 width="1280.000000pt" height="853.000000pt" viewBox="0 0 1280.000000 853.000000"
 preserveAspectRatio="xMidYMid meet">
<metadata>
Created by potrace 1.15, written by Peter Selinger 2001-2017
</metadata>
<g transform="translate(0.000000,853.000000) scale(0.100000,-0.100000)"
fill="#000000" stroke="none">
<path d="M5985 7861 c-55 -23 -61 -42 -130 -446 -25 -148 -50 -280 -55 -291
-6 -15 -21 -24 -47 -28 -21 -4 -98 -23 -171 -42 l-133 -36 -18 23 c-108 137
-420 498 -443 513 -21 14 -41 17 -76 14 -47 -5 -90 -29 -553 -299 -122 -71
-142 -94 -142 -159 0 -16 50 -170 113 -344 l112 -315 -133 -131 -134 -131
-321 117 c-349 126 -369 130 -418 81 -11 -12 -97 -154 -190 -314 -92 -161
-172 -293 -176 -293 -3 0 -13 12 -21 26 -22 43 -130 135 -186 161 -29 14 -88
32 -131 41 -72 15 -85 15 -161 -1 -113 -22 -184 -58 -259 -133 -147 -147 -181
-361 -88 -546 l34 -68 -24 5 c-13 3 -35 7 -49 10 -14 3 -56 -1 -95 -9 -56 -12
-83 -24 -133 -63 -121 -93 -283 -272 -344 -381 -67 -120 -144 -371 -194 -632
-16 -86 -22 -160 -24 -291 l-3 -177 -60 -143 c-48 -114 -101 -285 -251 -809
l-191 -665 -241 -470 c-263 -512 -273 -538 -228 -587 13 -15 110 -73 214 -129
163 -89 197 -103 237 -104 35 0 53 5 67 20 41 41 576 996 785 1400 120 231
221 423 224 427 6 5 398 -476 449 -550 11 -16 17 -110 58 -927 18 -358 20
-367 51 -399 33 -32 61 -36 310 -39 189 -2 203 -1 224 18 12 11 26 30 31 42 5
13 9 381 9 818 l1 794 -271 417 -272 416 76 318 c42 174 76 320 76 323 0 16
23 4 73 -37 29 -24 65 -49 78 -56 13 -7 47 -30 76 -51 38 -29 123 -65 334
-142 l282 -103 28 -99 c16 -55 25 -102 20 -105 -16 -10 -436 -366 -476 -402
-38 -35 -40 -39 -40 -95 0 -57 4 -64 154 -323 85 -146 168 -287 184 -314 36
-57 82 -81 135 -71 18 3 165 53 325 111 l291 104 138 -138 c76 -75 138 -141
138 -145 0 -5 -48 -140 -106 -300 -110 -302 -122 -353 -92 -399 9 -14 153
-103 331 -207 258 -149 323 -182 355 -183 71 -1 60 -11 342 325 103 123 171
195 180 193 8 -2 76 -20 150 -40 74 -20 154 -41 176 -46 42 -10 42 -10 53 -73
98 -568 103 -591 136 -624 22 -22 44 -33 76 -38 24 -3 195 -5 379 -3 297 3
339 5 367 21 18 9 38 27 44 39 7 12 38 166 71 342 32 176 62 323 66 327 4 3
41 14 82 24 41 10 119 31 172 46 54 16 102 29 107 29 6 0 59 -57 118 -127 323
-382 324 -382 363 -393 28 -7 47 -7 73 2 19 7 171 92 337 188 318 184 332 195
332 264 0 17 -50 169 -111 338 -61 168 -111 309 -111 311 0 3 60 66 133 139
l133 134 229 -83 c390 -140 405 -145 446 -138 21 4 48 17 61 30 26 26 353 588
369 635 14 40 5 88 -24 121 -12 15 -134 120 -270 234 -136 115 -246 213 -244
220 3 6 13 38 22 72 l17 61 329 121 330 121 135 96 c74 53 137 95 139 92 3 -2
39 -149 81 -325 l77 -321 -253 -388 c-139 -214 -262 -403 -272 -420 -18 -30
-18 -69 -16 -837 l3 -807 28 -27 28 -28 221 3 c133 2 235 8 257 15 63 21 68
41 86 397 9 173 22 443 30 600 8 157 15 296 15 310 0 18 67 110 229 313 l229
288 25 -43 c13 -24 111 -212 217 -418 186 -360 731 -1334 771 -1375 14 -15 32
-20 67 -20 41 0 73 15 242 106 107 58 203 117 213 131 39 52 32 68 -227 575
l-246 480 -190 664 c-153 536 -202 692 -251 809 l-62 145 2 135 c5 308 -116
805 -244 1000 -62 95 -221 267 -307 333 -62 48 -87 60 -143 72 -62 13 -85 13
-152 -1 -20 -4 -20 -2 7 49 102 189 69 410 -84 562 -73 73 -145 111 -255 132
-74 15 -88 15 -162 0 -101 -20 -172 -54 -240 -115 -69 -62 -114 -134 -139
-223 -33 -120 -21 -238 35 -348 51 -102 172 -204 272 -231 26 -7 52 -16 57
-21 4 -4 -27 -45 -70 -91 -44 -46 -87 -102 -97 -124 l-19 -41 -241 -6 c-197
-5 -257 -4 -328 9 l-86 16 -18 76 c-17 76 -58 222 -70 252 -4 11 71 80 265
245 286 242 299 258 285 328 -4 17 -50 106 -102 197 -290 503 -277 486 -357
484 -26 0 -155 -42 -356 -116 l-315 -116 -128 127 -128 127 116 325 c127 353
133 383 85 434 -28 29 -615 368 -653 376 -64 15 -89 -3 -224 -164 -265 -316
-327 -387 -337 -387 -6 0 -57 13 -113 30 -56 16 -129 35 -162 41 l-60 13 -10
50 c-6 28 -33 177 -61 331 -28 154 -56 295 -62 313 -6 20 -23 41 -42 53 -29
18 -53 19 -406 18 -206 0 -384 -4 -395 -8z m816 -464 c37 -203 69 -370 71
-372 1 -2 68 -19 148 -39 80 -19 183 -48 231 -64 l85 -29 110 130 c320 381
377 447 386 447 9 0 595 -334 607 -346 3 -3 -186 -545 -241 -690 -11 -31 -10
-32 58 -95 87 -80 133 -126 211 -211 l62 -68 358 130 c196 71 360 126 363 122
4 -4 84 -142 179 -307 l173 -299 -24 -21 c-41 -35 -553 -469 -556 -471 -2 -1
12 -49 31 -107 19 -58 47 -159 62 -224 15 -65 28 -123 30 -129 2 -6 43 -19 92
-29 71 -15 149 -19 401 -22 l312 -4 35 73 c25 52 61 100 124 169 l89 95 221
68 c262 81 292 82 378 17 112 -84 285 -279 332 -375 116 -235 217 -736 191
-941 l-9 -70 70 -165 c59 -139 99 -267 264 -840 l194 -675 240 -470 c133 -258
237 -472 233 -476 -4 -4 -68 -39 -142 -79 -74 -40 -154 -83 -177 -96 l-42 -24
-267 468 c-147 257 -383 690 -524 963 -142 273 -261 502 -264 508 -5 7 -122
-132 -296 -349 l-288 -360 -6 -93 c-4 -50 -13 -229 -21 -397 -8 -168 -20 -383
-25 -478 -6 -95 -10 -203 -10 -241 l0 -68 -82 -6 c-46 -4 -138 -7 -205 -7
l-123 0 0 766 0 767 271 415 c149 228 273 421 276 428 5 14 -186 824 -198 838
-4 5 -93 -52 -196 -126 l-189 -134 -334 -123 c-184 -68 -341 -127 -349 -131
-12 -7 -82 -213 -85 -251 -1 -9 109 -108 264 -239 146 -122 273 -230 284 -240
18 -17 13 -26 -155 -319 -96 -165 -178 -302 -184 -304 -5 -2 -163 51 -349 118
l-339 121 -179 -179 c-98 -98 -178 -182 -178 -186 0 -4 54 -156 120 -337 66
-181 120 -334 120 -340 0 -11 -588 -354 -607 -354 -6 0 -69 68 -139 152 -71
83 -147 172 -169 197 -22 26 -68 81 -103 123 l-63 76 -132 -43 c-73 -24 -183
-55 -246 -69 -62 -14 -115 -26 -116 -28 -2 -2 -32 -160 -67 -353 l-63 -350
-358 -3 c-196 -1 -357 1 -357 5 0 8 -122 697 -124 700 -1 1 -57 14 -124 28
-67 14 -178 44 -248 66 -123 39 -127 40 -144 22 -10 -10 -113 -130 -230 -268
-116 -137 -217 -251 -224 -253 -7 -2 -89 41 -182 96 -93 54 -226 131 -296 171
-86 48 -128 78 -128 89 1 9 54 163 119 342 l118 325 -56 49 c-73 65 -182 174
-254 255 l-56 63 -338 -120 c-186 -66 -341 -117 -346 -113 -11 11 -347 593
-347 602 0 8 47 49 344 298 152 128 205 178 201 190 -4 9 -22 70 -42 136 -19
66 -38 129 -42 140 -6 15 -76 45 -297 125 -314 114 -291 102 -578 307 l-115
81 -46 -191 c-25 -106 -71 -297 -101 -425 l-56 -232 276 -423 276 -422 0 -769
0 -769 -196 5 c-126 4 -199 10 -203 17 -4 6 -15 176 -25 378 -15 318 -44 884
-46 890 -2 10 -570 714 -576 714 -4 1 -127 -230 -274 -513 -219 -422 -455
-849 -751 -1360 l-39 -66 -182 99 c-110 59 -182 103 -180 111 2 7 109 220 239
473 l235 460 194 673 c163 569 204 697 261 830 l67 157 -3 145 c-3 170 13 297
65 510 43 175 105 346 151 419 64 100 236 282 329 348 17 12 54 25 82 29 46 6
76 -1 272 -62 l221 -68 91 -95 c69 -72 100 -114 125 -168 l34 -73 257 1 c274
1 437 18 453 49 4 8 20 69 34 135 15 66 44 170 65 232 l37 112 -268 226 c-147
125 -273 233 -280 241 -9 11 15 59 111 226 226 394 230 400 248 393 10 -4 166
-61 348 -127 l331 -120 134 134 c74 74 154 152 179 173 l44 39 -56 160 c-31
89 -86 244 -122 344 -36 101 -66 189 -66 196 0 12 564 344 599 353 12 3 30
-12 57 -44 48 -59 412 -493 429 -511 10 -11 37 -6 151 27 76 23 181 50 233 60
51 11 95 22 97 24 3 2 33 167 69 365 35 199 67 366 70 372 4 7 125 9 358 8
l351 -3 67 -368z m-4035 -1502 c116 -34 220 -144 250 -265 43 -169 -42 -348
-204 -427 -51 -25 -68 -28 -157 -28 -89 0 -107 3 -163 29 -132 61 -215 191
-215 336 0 160 101 300 254 354 56 19 171 20 235 1z m7566 -19 c76 -36 144
-106 182 -186 26 -56 30 -76 30 -150 0 -74 -4 -94 -30 -150 -37 -79 -107 -150
-183 -188 -50 -24 -67 -27 -161 -27 -95 0 -111 3 -162 28 -77 38 -144 107
-182 187 -27 57 -31 76 -31 150 1 66 6 96 23 135 50 109 120 177 224 216 79
29 213 22 290 -15z m-6970 -483 c121 -103 222 -193 225 -199 2 -7 -7 -47 -20
-91 -13 -43 -35 -121 -47 -173 -13 -52 -24 -97 -26 -99 -2 -2 -33 -10 -69 -16
-45 -9 -131 -11 -279 -7 l-213 5 -22 45 c-12 24 -54 79 -93 122 -39 43 -70 81
-70 85 1 5 26 16 56 26 104 32 210 118 268 219 33 56 58 152 58 219 0 28 3 51
6 51 3 0 105 -84 226 -187z"/>
<path d="M6039 7748 c0 -2 -30 -169 -67 -373 l-67 -369 -125 -28 c-69 -15
-180 -44 -248 -64 -105 -31 -125 -35 -136 -23 -7 8 -109 129 -226 269 -117
140 -221 263 -230 274 -17 17 -27 12 -309 -150 -160 -93 -291 -172 -291 -175
0 -4 56 -163 124 -354 l124 -347 -36 -31 c-21 -17 -104 -97 -185 -179 -82 -81
-153 -148 -157 -148 -4 0 -157 54 -340 120 -182 66 -336 120 -343 120 -11 0
-352 -579 -345 -584 4 -3 540 -456 551 -466 4 -4 -3 -38 -17 -76 -39 -109 -74
-231 -97 -339 -12 -55 -22 -101 -23 -102 0 -1 -143 -26 -316 -57 -173 -31
-325 -58 -337 -61 -21 -5 -20 -7 20 -92 23 -49 62 -128 87 -178 l45 -90 427
-215 c235 -118 430 -218 433 -221 5 -5 -125 -280 -140 -297 -1 -1 -39 11 -84
28 -45 16 -84 30 -86 30 -5 0 40 -164 64 -234 12 -33 21 -62 21 -66 0 -6 -513
-442 -543 -461 -8 -6 299 -556 327 -585 8 -9 97 19 341 107 182 65 335 119
340 118 6 0 35 -29 65 -65 55 -64 197 -206 277 -276 l42 -37 -119 -330 c-66
-181 -120 -334 -120 -339 0 -9 532 -322 572 -337 10 -4 83 75 233 252 120 142
224 264 231 272 12 13 31 9 146 -27 126 -40 333 -92 370 -92 20 0 17 15 87
-385 l57 -320 341 -3 341 -2 6 27 c3 16 31 167 61 338 31 171 58 317 61 325 3
11 42 24 129 43 69 15 185 47 258 72 72 24 135 40 138 37 3 -4 108 -127 233
-274 125 -148 230 -268 233 -268 11 0 583 333 583 339 0 3 -56 159 -124 346
l-123 340 81 75 c73 68 184 181 262 267 l29 33 225 -81 c124 -45 280 -100 347
-124 l122 -44 59 102 c33 56 110 189 170 294 l111 193 -276 232 c-152 128
-281 236 -287 240 -6 4 4 51 28 128 22 66 36 123 33 126 -3 4 -20 1 -38 -5
-18 -6 -33 -10 -34 -9 -6 7 -114 227 -128 261 l-16 37 434 217 434 217 76 159
c42 87 75 166 73 175 -3 14 -66 28 -370 82 -201 36 -369 67 -372 70 -2 3 -16
55 -30 115 -21 94 -80 303 -101 356 -4 11 46 60 187 179 106 91 236 201 290
247 l96 82 -169 293 c-95 164 -175 292 -182 290 -7 -2 -168 -60 -358 -129
l-347 -125 -42 49 c-24 26 -104 107 -178 180 l-135 132 127 356 c70 196 126
358 124 360 -7 6 -580 335 -583 335 -2 0 -111 -127 -241 -282 -130 -156 -240
-286 -244 -291 -3 -4 -51 8 -106 27 -56 18 -163 48 -240 66 -76 18 -142 36
-146 39 -5 5 -138 714 -138 736 0 5 -679 7 -681 3z m631 -62 c0 -38 133 -713
142 -722 7 -7 88 -31 180 -53 92 -23 205 -55 252 -71 46 -17 93 -30 103 -30
24 0 52 30 278 300 103 124 196 234 206 244 17 18 22 16 206 -89 103 -60 216
-125 250 -144 45 -26 61 -40 57 -51 -49 -125 -234 -658 -234 -675 0 -31 381
-415 412 -415 11 0 169 54 350 120 182 66 334 117 338 115 7 -4 74 -118 267
-452 l24 -41 -276 -234 c-153 -129 -278 -242 -281 -254 -3 -12 13 -79 35 -150
23 -71 54 -187 70 -258 16 -70 35 -134 43 -142 7 -8 156 -39 358 -75 190 -34
347 -63 349 -65 3 -3 -22 -60 -55 -127 l-59 -123 -435 -220 c-374 -188 -436
-223 -444 -246 -8 -23 2 -51 70 -194 53 -112 86 -170 101 -176 l21 -10 -24
-72 c-41 -120 -55 -101 251 -359 149 -125 269 -233 267 -240 -7 -27 -277 -487
-286 -487 -5 0 -156 52 -335 116 -247 88 -331 114 -347 108 -12 -5 -65 -57
-118 -116 -52 -58 -135 -141 -184 -185 -49 -43 -94 -88 -100 -100 -13 -27 -11
-36 83 -293 37 -102 84 -233 105 -292 l39 -107 -42 -24 c-23 -13 -133 -76
-244 -140 -112 -64 -207 -117 -212 -117 -5 0 -107 115 -226 256 -120 140 -227
260 -240 266 -18 8 -46 2 -141 -30 -115 -40 -257 -78 -377 -102 -36 -7 -61
-18 -67 -30 -5 -10 -32 -143 -60 -296 -28 -154 -55 -303 -61 -332 l-10 -52
-289 0 c-266 0 -289 1 -294 18 -3 9 -28 148 -56 307 -28 160 -55 306 -61 326
-11 42 -28 51 -134 70 -77 13 -280 69 -363 99 -29 11 -65 20 -81 20 -34 0 -49
-15 -296 -307 -98 -117 -183 -213 -188 -213 -9 0 -475 266 -489 279 -4 3 44
149 107 323 63 175 115 324 115 331 0 8 -95 109 -210 226 -146 146 -217 211
-232 211 -12 0 -161 -49 -330 -110 -170 -60 -312 -110 -317 -110 -5 0 -31 39
-59 88 -27 48 -91 159 -142 246 l-91 159 23 22 c13 13 129 111 258 220 129
108 239 207 244 220 7 19 2 48 -21 122 -17 54 -30 100 -28 101 2 2 20 -1 40
-8 71 -23 79 -15 166 164 43 90 79 175 79 188 0 14 -8 32 -17 40 -10 9 -208
111 -440 227 l-423 211 -40 80 c-22 44 -51 104 -64 134 l-24 53 305 53 c167
30 311 59 319 65 8 6 27 67 43 140 16 72 50 195 76 274 37 114 45 148 37 166
-6 12 -125 120 -266 239 -140 119 -257 220 -260 224 -4 6 259 477 279 500 2 2
142 -47 312 -108 169 -62 320 -116 334 -120 40 -12 70 8 152 100 42 47 124
128 183 180 58 52 110 105 115 118 10 26 13 17 -132 421 -55 151 -98 275 -96
276 4 3 233 137 357 208 63 36 122 68 130 71 10 4 83 -75 240 -263 133 -159
236 -273 251 -279 20 -8 51 -2 145 28 112 36 333 90 367 90 8 0 25 8 36 18 19
15 30 61 82 352 32 184 61 345 64 358 l5 22 290 0 c160 0 290 -2 290 -4z"/>
<path d="M6255 5323 c-249 -31 -487 -151 -659 -333 -325 -345 -386 -865 -150
-1271 144 -248 385 -432 659 -506 90 -24 117 -27 275 -27 148 0 187 4 253 22
394 109 682 393 787 777 32 114 39 349 15 466 -79 391 -348 699 -720 824 -128
43 -330 64 -460 48z m325 -118 c148 -29 325 -120 444 -227 134 -120 252 -312
296 -483 42 -162 36 -384 -14 -533 -51 -148 -119 -262 -224 -373 -89 -95 -169
-153 -288 -211 -120 -57 -219 -84 -345 -93 -452 -33 -863 251 -1004 695 -33
105 -45 312 -25 437 34 216 167 444 343 587 229 186 526 259 817 201z"/>
<path d="M6227 5014 c-172 -38 -276 -94 -392 -209 -92 -91 -152 -185 -189
-295 -48 -144 -57 -267 -30 -397 33 -163 87 -270 193 -385 106 -115 224 -185
379 -224 354 -90 724 78 883 401 86 175 105 365 56 547 -15 54 -38 121 -52
149 -97 191 -278 340 -487 400 -98 28 -268 34 -361 13z m341 -116 c283 -87
466 -322 479 -613 6 -127 -13 -221 -68 -331 -78 -159 -224 -284 -395 -340 -79
-26 -102 -29 -209 -28 -102 0 -132 5 -200 27 -473 156 -625 740 -287 1099 115
121 231 180 422 212 50 9 193 -6 258 -26z"/>
</g>
</svg>
